<mxfile host="app.diagrams.net" modified="2021-01-26T16:38:50.276Z" agent="5.0 (Windows NT 10.0; Win64; x64) AppleWebKit/537.36 (KHTML, like Gecko) Chrome/87.0.4280.141 Safari/537.36" etag="xqzmSy0Y3186Rb5UQfZ7" version="14.2.7" type="github">
  <diagram id="YtawaoERy_qUtcMyllB3" name="Page-1">
    <mxGraphModel dx="1038" dy="588" grid="1" gridSize="10" guides="1" tooltips="1" connect="1" arrows="1" fold="1" page="1" pageScale="1" pageWidth="827" pageHeight="1169" math="0" shadow="0">
      <root>
        <mxCell id="0" />
        <mxCell id="1" parent="0" />
        <mxCell id="Q-07va1hXKHLNJHi43SY-14" style="edgeStyle=orthogonalEdgeStyle;rounded=0;orthogonalLoop=1;jettySize=auto;html=1;exitX=1;exitY=0.25;exitDx=0;exitDy=0;entryX=-0.014;entryY=0.396;entryDx=0;entryDy=0;entryPerimeter=0;" edge="1" parent="1" source="Q-07va1hXKHLNJHi43SY-1" target="Q-07va1hXKHLNJHi43SY-3">
          <mxGeometry relative="1" as="geometry">
            <Array as="points">
              <mxPoint x="320" y="140" />
              <mxPoint x="355" y="140" />
              <mxPoint x="355" y="132" />
            </Array>
          </mxGeometry>
        </mxCell>
        <mxCell id="Q-07va1hXKHLNJHi43SY-1" value="Grandpa&lt;br&gt;*__vptr;&lt;br&gt;virtual void sleep();" style="rounded=0;whiteSpace=wrap;html=1;" vertex="1" parent="1">
          <mxGeometry x="160" y="100" width="160" height="80" as="geometry" />
        </mxCell>
        <mxCell id="Q-07va1hXKHLNJHi43SY-15" style="edgeStyle=orthogonalEdgeStyle;rounded=0;orthogonalLoop=1;jettySize=auto;html=1;exitX=0;exitY=0.5;exitDx=0;exitDy=0;entryX=1;entryY=0.75;entryDx=0;entryDy=0;" edge="1" parent="1" source="Q-07va1hXKHLNJHi43SY-3" target="Q-07va1hXKHLNJHi43SY-1">
          <mxGeometry relative="1" as="geometry">
            <Array as="points">
              <mxPoint x="390" y="150" />
              <mxPoint x="355" y="150" />
              <mxPoint x="355" y="160" />
            </Array>
          </mxGeometry>
        </mxCell>
        <mxCell id="Q-07va1hXKHLNJHi43SY-3" value="Grandpa VTable&lt;br&gt;sleep();" style="rounded=0;whiteSpace=wrap;html=1;" vertex="1" parent="1">
          <mxGeometry x="390" y="100" width="120" height="80" as="geometry" />
        </mxCell>
        <mxCell id="Q-07va1hXKHLNJHi43SY-17" style="edgeStyle=orthogonalEdgeStyle;rounded=0;orthogonalLoop=1;jettySize=auto;html=1;exitX=1;exitY=0.25;exitDx=0;exitDy=0;entryX=0;entryY=0.25;entryDx=0;entryDy=0;" edge="1" parent="1" source="Q-07va1hXKHLNJHi43SY-5" target="Q-07va1hXKHLNJHi43SY-6">
          <mxGeometry relative="1" as="geometry" />
        </mxCell>
        <mxCell id="Q-07va1hXKHLNJHi43SY-5" value="Daddy : public Grandpa&lt;br&gt;*__vptr;&lt;br&gt;virtual void sleep();&lt;br&gt;virtual void walk();" style="rounded=0;whiteSpace=wrap;html=1;" vertex="1" parent="1">
          <mxGeometry x="160" y="230" width="160" height="100" as="geometry" />
        </mxCell>
        <mxCell id="Q-07va1hXKHLNJHi43SY-18" style="edgeStyle=orthogonalEdgeStyle;rounded=0;orthogonalLoop=1;jettySize=auto;html=1;exitX=0;exitY=0.75;exitDx=0;exitDy=0;entryX=1;entryY=0.75;entryDx=0;entryDy=0;" edge="1" parent="1" source="Q-07va1hXKHLNJHi43SY-6" target="Q-07va1hXKHLNJHi43SY-5">
          <mxGeometry relative="1" as="geometry" />
        </mxCell>
        <mxCell id="Q-07va1hXKHLNJHi43SY-19" style="edgeStyle=orthogonalEdgeStyle;rounded=0;orthogonalLoop=1;jettySize=auto;html=1;exitX=0;exitY=0.5;exitDx=0;exitDy=0;entryX=1;entryY=0.6;entryDx=0;entryDy=0;entryPerimeter=0;" edge="1" parent="1" source="Q-07va1hXKHLNJHi43SY-6" target="Q-07va1hXKHLNJHi43SY-5">
          <mxGeometry relative="1" as="geometry" />
        </mxCell>
        <mxCell id="Q-07va1hXKHLNJHi43SY-6" value="Daddy VTable&lt;br&gt;sleep();&lt;br&gt;walk();" style="rounded=0;whiteSpace=wrap;html=1;" vertex="1" parent="1">
          <mxGeometry x="430" y="250" width="120" height="80" as="geometry" />
        </mxCell>
        <mxCell id="Q-07va1hXKHLNJHi43SY-23" style="edgeStyle=orthogonalEdgeStyle;rounded=0;orthogonalLoop=1;jettySize=auto;html=1;exitX=1;exitY=0.25;exitDx=0;exitDy=0;entryX=0;entryY=0.25;entryDx=0;entryDy=0;" edge="1" parent="1" source="Q-07va1hXKHLNJHi43SY-9" target="Q-07va1hXKHLNJHi43SY-10">
          <mxGeometry relative="1" as="geometry">
            <Array as="points">
              <mxPoint x="320" y="420" />
            </Array>
          </mxGeometry>
        </mxCell>
        <mxCell id="Q-07va1hXKHLNJHi43SY-9" value="Son : public Daddy&lt;br&gt;*__vptr;&lt;br&gt;virtual void sleep();&lt;br&gt;virtual void walk();&lt;br&gt;virtual void play();" style="rounded=0;whiteSpace=wrap;html=1;" vertex="1" parent="1">
          <mxGeometry x="160" y="380" width="160" height="100" as="geometry" />
        </mxCell>
        <mxCell id="Q-07va1hXKHLNJHi43SY-20" style="edgeStyle=orthogonalEdgeStyle;rounded=0;orthogonalLoop=1;jettySize=auto;html=1;exitX=0;exitY=0.75;exitDx=0;exitDy=0;entryX=1.015;entryY=0.831;entryDx=0;entryDy=0;entryPerimeter=0;" edge="1" parent="1" source="Q-07va1hXKHLNJHi43SY-10" target="Q-07va1hXKHLNJHi43SY-9">
          <mxGeometry relative="1" as="geometry" />
        </mxCell>
        <mxCell id="Q-07va1hXKHLNJHi43SY-24" style="edgeStyle=orthogonalEdgeStyle;rounded=0;orthogonalLoop=1;jettySize=auto;html=1;exitX=0;exitY=0.5;exitDx=0;exitDy=0;entryX=0.998;entryY=0.69;entryDx=0;entryDy=0;entryPerimeter=0;" edge="1" parent="1" source="Q-07va1hXKHLNJHi43SY-10" target="Q-07va1hXKHLNJHi43SY-9">
          <mxGeometry relative="1" as="geometry">
            <Array as="points">
              <mxPoint x="430" y="449" />
            </Array>
          </mxGeometry>
        </mxCell>
        <mxCell id="Q-07va1hXKHLNJHi43SY-25" style="edgeStyle=orthogonalEdgeStyle;rounded=0;orthogonalLoop=1;jettySize=auto;html=1;exitX=0;exitY=0.5;exitDx=0;exitDy=0;entryX=1.02;entryY=0.519;entryDx=0;entryDy=0;entryPerimeter=0;" edge="1" parent="1" source="Q-07va1hXKHLNJHi43SY-10" target="Q-07va1hXKHLNJHi43SY-9">
          <mxGeometry relative="1" as="geometry" />
        </mxCell>
        <mxCell id="Q-07va1hXKHLNJHi43SY-10" value="Son VTable&lt;br&gt;sleep();&lt;br&gt;walk();&lt;br&gt;play();" style="rounded=0;whiteSpace=wrap;html=1;" vertex="1" parent="1">
          <mxGeometry x="430" y="400" width="120" height="80" as="geometry" />
        </mxCell>
        <mxCell id="Q-07va1hXKHLNJHi43SY-26" value="*__vptr вказівник на віртуальну таблицю" style="text;html=1;strokeColor=none;fillColor=none;align=center;verticalAlign=middle;whiteSpace=wrap;rounded=0;" vertex="1" parent="1">
          <mxGeometry x="280" y="50" width="160" height="40" as="geometry" />
        </mxCell>
      </root>
    </mxGraphModel>
  </diagram>
</mxfile>
